<!--?xml version="1.0" encoding="utf-8"?-->
<!-- Generator: Adobe Illustrator 16.0.0, SVG Export Plug-In . SVG Version: 6.00 Build 0)  -->

<svg version="1.1" id="Layer_1" xmlns="http://www.w3.org/2000/svg" xmlns:xlink="http://www.w3.org/1999/xlink" x="0px" y="0px" width="100px" height="100px" viewBox="280.5 516.833 93.318 95.733" enable-background="new 280.5 516.833 93.318 95.733" xml:space="preserve" style="">
<g>
	<path fill="none" stroke="#fff" stroke-miterlimit="10" d="M327.677,517.333c-25.982,0-46.677,19.774-46.677,47.366
		c0,28.973,20.694,47.137,46.447,47.367c14.716,0,30.582-5.979,39.549-17.705l-6.438-5.289
		c-6.898,9.198-20.924,14.026-33.111,14.026c-18.854,0-35.41-12.416-37.25-34.03h82.777
		C376.423,533.198,353.43,517.333,327.677,517.333z M366.306,564.24h-75.878c-0.163,0-0.314-0.029-0.46-0.069
		c-0.146,0.04-0.297,0.069-0.459,0.069c-0.92,0-1.61-0.69-1.61-1.61c0-21.844,17.705-39.778,39.779-39.778
		c21.684,0,39.151,17.085,39.761,38.614c0.011,0.387,0.018,0.774,0.018,1.164C367.686,563.55,366.996,564.24,366.306,564.24z" class="qTCSSVfe_0"></path>
	<path fill="none" stroke="#fff" stroke-miterlimit="10" d="M327.907,525.841c-19.617,0-35.776,15.562-36.743,34.95
		c-0.004,0.076-0.002,0.153-0.006,0.229h73.497c-0.003-0.076-0.002-0.153-0.006-0.229
		C363.683,541.402,347.524,525.841,327.907,525.841z" class="qTCSSVfe_1"></path>
</g>
<style>.qTCSSVfe_0{stroke-dasharray:664 666;stroke-dashoffset:665;animation:qTCSSVfe_draw_0 2400ms ease 0ms infinite,qTCSSVfe_fade 2400ms linear 0ms infinite;}.qTCSSVfe_1{stroke-dasharray:186 188;stroke-dashoffset:187;animation:qTCSSVfe_draw_1 2400ms ease 0ms infinite,qTCSSVfe_fade 2400ms linear 0ms infinite;}@keyframes qTCSSVfe_draw{100%{stroke-dashoffset:0;}}@keyframes qTCSSVfe_fade{0%{stroke-opacity:1;}83.33333333333334%{stroke-opacity:1;}100%{stroke-opacity:0;}}@keyframes qTCSSVfe_draw_0{0%{stroke-dashoffset: 665}65.04303599374023%{ stroke-dashoffset: 0;}100%{ stroke-dashoffset: 0;}}@keyframes qTCSSVfe_draw_1{65.04303599374023%{stroke-dashoffset: 187}83.33333333333334%{ stroke-dashoffset: 0;}100%{ stroke-dashoffset: 0;}}</style></svg>
