<?xml version="1.0" encoding="iso-8859-1"?>
<!-- Generator: Adobe Illustrator 19.0.0, SVG Export Plug-In . SVG Version: 6.00 Build 0)  -->
<svg version="1.1" id="Layer_1" xmlns="http://www.w3.org/2000/svg" xmlns:xlink="http://www.w3.org/1999/xlink" x="0px" y="0px"
	 viewBox="0 0 512.004 512.004" style="enable-background:new 0 0 512.004 512.004;" xml:space="preserve">
<rect x="21.013" y="161.867" style="fill:#B8002A;" width="469.979" height="350.131"/>
<g>
	<rect x="21.013" y="161.867" style="fill:#DE0436;" width="234.984" height="350.131"/>
	<rect y="125.599" style="fill:#DE0436;" width="512.004" height="72.536"/>
</g>
<rect y="125.599" style="fill:#B8002A;" width="256.007" height="72.536"/>
<rect x="21.013" y="273.168" style="fill:#E66600;" width="469.979" height="75.462"/>
<g>
	<rect x="21.013" y="273.168" style="fill:#FF8E00;" width="234.995" height="75.462"/>
	<path style="fill:#FF8E00;" d="M310.896,0.007c-22.155,0-41.946,10.271-54.893,26.291c-12.946-16.02-32.738-26.291-54.893-26.291
		c-38.909,0-70.565,31.655-70.565,70.564s31.656,70.565,70.565,70.565h17.16v370.861h75.461V141.136h17.165
		c38.909,0,70.565-31.655,70.565-70.565C381.461,31.662,349.806,0.007,310.896,0.007z M201.11,109.79
		c-21.625,0-39.219-17.593-39.219-39.219c0-21.625,17.594-39.218,39.219-39.218s39.219,17.593,39.219,39.218v39.218H218.27l0,0
		h-17.16V109.79z M310.896,109.79h-17.165l0,0h-22.053V70.571c0-21.625,17.594-39.218,39.219-39.218
		c21.625,0,39.219,17.593,39.219,39.218C350.115,92.196,332.521,109.79,310.896,109.79z"/>
</g>
<rect x="218.266" y="141.136" style="fill:#FFBA00;" width="37.731" height="370.861"/>
<g>
</g>
<g>
</g>
<g>
</g>
<g>
</g>
<g>
</g>
<g>
</g>
<g>
</g>
<g>
</g>
<g>
</g>
<g>
</g>
<g>
</g>
<g>
</g>
<g>
</g>
<g>
</g>
<g>
</g>
</svg>
