<?xml version="1.0" encoding="iso-8859-1"?>
<!-- Generator: Adobe Illustrator 19.0.0, SVG Export Plug-In . SVG Version: 6.00 Build 0)  -->
<svg version="1.1" id="Layer_1" xmlns="http://www.w3.org/2000/svg" xmlns:xlink="http://www.w3.org/1999/xlink" x="0px" y="0px"
	 viewBox="0 0 512 512" style="enable-background:new 0 0 512 512;" xml:space="preserve">
<circle style="fill:#FFD630;" cx="256" cy="256" r="256"/>
<path style="fill:#F5BE18;" d="M209.798,507.779l-96.624-96.624l17.326-26.433c-141.494-111.73-6.331-422.705,243.45-270.438
	c-0.222-4.665,23.879-9.663,29.21-7.664l104.844,104.843c2.555,14.438,3.887,29.321,3.887,44.536c0,141.383-114.617,256-255.999,256
	c-15.771,0-31.208-1.444-46.202-4.11L209.798,507.779z"/>
<path style="fill:#FEFEFE;" d="M256,65.527c105.177,0,190.473,85.296,190.473,190.473S361.176,446.474,256,446.474
	S65.527,361.176,65.527,255.999S150.824,65.527,256,65.527z M256,81.409c96.402,0,174.59,78.188,174.59,174.59
	S352.402,430.59,256,430.59S81.41,352.403,81.41,256S159.597,81.409,256,81.409z"/>
<path style="fill:#00CC96;" d="M378.613,92.404c15.66,0,28.432,12.661,28.432,28.432c0,15.66-12.661,28.432-28.432,28.432
	c-15.66,0-28.432-12.661-28.432-28.432C350.181,105.177,362.842,92.404,378.613,92.404z"/>
<path style="fill:#12B589;" d="M398.715,100.734c5.109,5.109,8.33,12.217,8.33,20.102c0,15.66-12.661,28.432-28.432,28.432
	c-7.886,0-14.882-3.221-20.102-8.33c22.213-2.221,37.539-12.994,40.094-40.094L398.715,100.734z"/>
<path style="fill:#00CC96;" d="M133.275,92.404c15.66,0,28.432,12.661,28.432,28.432c0,15.66-12.661,28.432-28.432,28.432
	c-15.66,0-28.433-12.661-28.433-28.432C104.844,105.177,117.504,92.404,133.275,92.404z"/>
<path style="fill:#12B589;" d="M153.377,100.734c5.109,5.109,8.33,12.217,8.33,20.102c0,15.66-12.661,28.432-28.432,28.432
	c-7.886,0-14.882-3.221-20.102-8.33c22.213-2.221,37.539-12.994,40.094-40.094L153.377,100.734z"/>
<path style="fill:#00CC96;" d="M378.613,362.731c15.66,0,28.432,12.661,28.432,28.433c0,15.66-12.661,28.432-28.432,28.432
	c-15.66,0-28.432-12.661-28.432-28.432C350.181,375.504,362.842,362.731,378.613,362.731z"/>
<path style="fill:#12B589;" d="M398.715,371.061c5.109,5.109,8.33,12.217,8.33,20.102c0,15.66-12.661,28.432-28.432,28.432
	c-7.886,0-14.882-3.221-20.102-8.33c22.213-2.221,37.539-12.994,40.094-40.094L398.715,371.061z"/>
<path style="fill:#00CC96;" d="M133.275,362.731c15.66,0,28.432,12.661,28.432,28.433c0,15.66-12.661,28.432-28.432,28.432
	c-15.66,0-28.433-12.661-28.433-28.432C104.844,375.504,117.504,362.731,133.275,362.731z"/>
<path style="fill:#12B589;" d="M153.377,371.061c5.109,5.109,8.33,12.217,8.33,20.102c0,15.66-12.661,28.432-28.432,28.432
	c-7.886,0-14.882-3.221-20.102-8.33c22.213-2.221,37.539-12.994,40.094-40.094L153.377,371.061z"/>
<path style="fill:#E84F4F;" d="M196.914,213.574h128.5c10.106,0,18.325,8.219,18.325,18.325v111.508h-165.15V231.9
	C178.589,221.792,186.808,213.574,196.914,213.574z"/>
<path style="fill:#4D4D4D;" d="M209.021,178.256v35.318h20.547v-36.095c0-18.77,63.306-22.546,63.306,0v36.095h20.547v-35.318
	C313.42,124.835,209.021,124.835,209.021,178.256z"/>
<g>
	<path style="fill:#FFFFFF;" d="M261.22,265.107c9.33,0,16.992,7.553,16.992,16.992c0,6.775-3.998,12.661-9.663,15.326v35.762H254
		v-35.762c-5.776-2.666-9.663-8.552-9.663-15.326c0-9.33,7.553-16.992,16.992-16.992H261.22z"/>
	<path style="fill:#FFFFFF;" d="M273.882,270.772c2.666,2.999,4.221,6.886,4.221,11.217c0,6.775-3.998,12.661-9.663,15.326v35.762
		h-14.55v-35.762c-2.888-1.333-5.22-3.443-6.997-6.109l26.878-20.547L273.882,270.772z"/>
</g>
<g>
</g>
<g>
</g>
<g>
</g>
<g>
</g>
<g>
</g>
<g>
</g>
<g>
</g>
<g>
</g>
<g>
</g>
<g>
</g>
<g>
</g>
<g>
</g>
<g>
</g>
<g>
</g>
<g>
</g>
</svg>
