<svg xmlns="http://www.w3.org/2000/svg" style="display: none;"><symbol id="list" viewBox="0 0 512 512"><title>list</title><g> <g> <polygon points="323.234,437.555 323.234,471.861 224.988,471.861 224.988,486.63 338.003,486.63 338.003,437.555 "/> </g> </g><g> <g> <rect x="183.67" y="471.857" width="18.543" height="14.769"/> </g> </g><g> <g> <polygon points="230.589,63.477 230.589,78.246 262.206,78.246 262.206,86.504 276.975,86.504 276.975,63.477 "/> </g> </g><g> <g> <path d="M201.571,27.873c-9.715,0-17.618,7.904-17.618,17.619s7.904,17.619,17.618,17.619c9.714,0,17.619-7.904,17.619-17.619 S211.287,27.873,201.571,27.873z M201.571,48.342c-1.571,0-2.848-1.278-2.848-2.849s1.278-2.849,2.848-2.849 c1.57,0,2.849,1.278,2.849,2.849S203.143,48.342,201.571,48.342z"/> </g> </g><g> <g> <path d="M68.539,168.389v69.621h69.62v-69.621H68.539z M123.39,223.241H83.308v-40.083h40.082V223.241z"/> </g> </g><g> <g> <path d="M68.539,265.765v69.62h69.62v-69.62H68.539z M123.39,320.616H83.308v-40.082h40.082V320.616z"/> </g> </g><g> <g> <path d="M68.539,363.141v69.621h69.62v-69.621H68.539z M123.39,417.993H83.308V377.91h40.082V417.993z"/> </g> </g><g> <g> <rect x="169.826" y="195.814" width="139.108" height="14.769"/> </g> </g><g> <g> <polygon points="413.063,162.694 402.618,173.137 411.88,182.399 381.361,212.919 391.805,223.362 432.768,182.399 "/> </g> </g><g> <g> <rect x="365.331" y="224.998" transform="matrix(0.707 -0.7072 0.7072 0.707 -55.2538 331.3968)" width="13.985" height="14.769"/> </g> </g><g> <g> <path d="M474.17,119.301l-5.749-5.749c-15.873-15.871-41.699-15.871-57.572,0l-47.477,47.477V76.804h-61.027V38.108h-55.873 c-1.517-9.344-5.907-17.957-12.732-24.784C225.147,4.732,213.724,0,201.571,0c-12.152,0-23.576,4.732-32.168,13.324 c-6.825,6.826-11.216,15.44-12.732,24.784H92.054v38.696H25.926V512h337.445V287.671l110.798-110.798 C490.042,161.001,490.042,135.174,474.17,119.301z M106.823,52.877h64.026v-7.385c0-8.207,3.196-15.921,8.998-21.724 c5.802-5.803,13.518-8.999,21.725-8.999s15.921,3.196,21.725,8.999c5.802,5.803,8.998,13.517,8.998,21.724v7.385h55.28v69.001 H106.823V52.877z M348.602,497.231H40.695V91.573h51.359v45.074h210.291V91.573h46.258v84.226L231.21,293.191h-61.386v14.769 h46.617l-5.136,5.136l-22.966,77.471h-18.515v14.769h139.109v-14.769H226.89l47.736-14.151l73.976-73.976V497.231z M221.406,330.989l35.328,35.327l-50.213,14.885L221.406,330.989z M270.731,359.426l-42.434-42.434l177.027-177.027l42.435,42.435 L270.731,359.426z M463.726,166.43l-5.526,5.526l-42.435-42.435l5.526-5.525c10.114-10.114,26.571-10.114,36.686,0l5.749,5.748 C473.84,139.859,473.84,156.317,463.726,166.43z"/> </g> </g></symbol><symbol id="user" viewBox="0 0 512.001 512.001"><title>user</title><path d="M410.679,407.386l70.662-70.769l-41.951-41.951l-84.936,84.936c-1.74-0.586-3.527-1.178-5.388-1.769 c-9.629-5.07-33.312-18.489-43.529-28.132v-26.191c32.68-18.787,55.045-52.405,62.206-93.531 c18.607-5.311,34.8-22.685,34.8-38.652c0-16.221-12.185-26.993-32.335-29.225v-19.127c0.158-4.58,1.563-67.652-37.994-108.823 C310.439,11.49,280.608,0,243.548,0c-37.158,0-67.044,11.514-88.826,34.221c-39.48,41.157-38.001,104.123-37.834,108.761v19.124 c-20.151,2.232-32.335,13.004-32.335,29.225c0,15.967,16.194,33.339,34.799,38.652c7.162,41.134,29.534,74.756,62.206,93.533 v26.19c-10.217,9.641-33.937,23.08-43.554,28.145C32.942,411.942,30.704,474.186,30.661,476.824l-0.001,35.177h425.773v-35.092 C456.424,475.332,455.666,439.499,410.679,407.386z M439.391,317.57l19.055,19.056l-65.843,65.943l-41.434,41.329l-28.548,9.493 l9.492-28.542L439.391,317.57z M166.479,45.36c18.604-19.352,44.534-29.164,77.069-29.164c32.442,0,58.322,9.793,76.918,29.107 c27.707,28.774,32.611,71.659,33.423,89.244c-69.063-2.924-132.388-41.328-133.043-41.729l-5.447-3.353l-4.523,4.523 c-33.19,33.19-63.757,42.509-77.815,45.119C133.228,125.901,135.981,77.083,166.479,45.36z M134.516,222.127l-0.841-6.092 l-6.094-0.826c-11.717-1.587-26.833-13.452-26.833-23.879c0-12.488,18.552-13.459,24.237-13.459h8.098v-22.304 c14.834-2.216,48.103-10.995,84.763-45.763c17.497,9.814,73.821,38.598,136.169,40.961l-0.005,27.105h8.098 c5.686,0,24.237,0.971,24.237,13.459c0,10.427-15.117,22.292-26.834,23.879l-6.094,0.826l-0.841,6.092 c-5.559,40.254-27.019,72.846-58.86,89.411c-15.155,7.839-32.034,11.813-50.171,11.813c-18.337,0-35.203-3.968-50.155-11.805 C161.535,294.972,140.075,262.38,134.516,222.127z M197.754,331.273c14.14,5.487,29.485,8.273,45.794,8.273 c16.181,0,31.523-2.8,45.794-8.317v18.639c-5.573,5.783-23.205,21.985-45.794,21.985c-22.598,0-40.237-16.217-45.794-21.984 V331.273z M440.237,495.804H46.856v-18.698c0.052-0.948,0.975-13.941,12.483-30.19c20.263-28.612,57.024-45.086,84.297-53.867 l0.654-0.211l0.61-0.319c3.354-1.751,29.402-15.506,44.481-28.135c9.324,8.777,28.869,23.665,54.166,23.665 c25.296,0,44.842-14.888,54.166-23.665c14.562,12.195,39.346,25.438,44.051,27.91l-23.812,23.812l-20.903,62.858l62.852-20.902 l39.146-39.047c39.676,27.209,41.14,56.328,41.19,58.025V495.804z"/><rect x="195.04" y="425.743" width="80.838" height="16.196"/><rect x="168.101" y="458.08" width="107.788" height="16.196"/><rect x="130.376" y="458.08" width="21.557" height="16.196"/></symbol><symbol id="login" viewBox="0 0 512 512"><title>login</title><g> <g> <path d="M406.393,131.594c4.58,0,8.294-3.713,8.294-8.294V34.834C414.687,15.627,399.06,0,379.853,0H43.68 C24.473,0,8.847,15.627,8.847,34.834v442.333C8.847,496.373,24.473,512,43.68,512h336.173c19.207,0,34.834-15.627,34.834-34.834 v-88.468c0-4.581-3.713-8.294-8.294-8.294c-4.58,0-8.294,3.713-8.294,8.294v88.468c0,10.061-8.185,18.246-18.246,18.246H43.68 c-10.061,0-18.246-8.185-18.246-18.246V34.834c0-10.061,8.185-18.246,18.246-18.246h336.173c10.061,0,18.246,8.185,18.246,18.246 V123.3C398.099,127.881,401.813,131.594,406.393,131.594z"/> </g> </g><g> <g> <path d="M229.46,35.387h-35.387c-4.58,0-8.294,3.713-8.294,8.294c0,4.58,3.713,8.294,8.294,8.294h35.387 c4.58,0,8.294-3.713,8.294-8.294C237.754,39.1,234.04,35.387,229.46,35.387z"/> </g> </g><g> <g> <path d="M158.687,35.431c-4.58,0-8.294,3.758-8.294,8.338c0,4.58,3.713,8.294,8.294,8.294c4.58,0,8.294-3.713,8.294-8.294V43.68 C166.981,39.1,163.267,35.431,158.687,35.431z"/> </g> </g><g> <g> <path d="M229.46,460.026h-35.387c-4.58,0-8.294,3.713-8.294,8.294c0,4.58,3.713,8.294,8.294,8.294h35.387 c4.58,0,8.294-3.713,8.294-8.294C237.754,463.739,234.04,460.026,229.46,460.026z"/> </g> </g><g> <g> <path d="M371.002,131.594c4.58,0,8.294-3.713,8.294-8.294V79.066c0-4.58-3.713-8.294-8.294-8.294H52.523 c-4.58,0-8.294,3.713-8.294,8.294v353.866c0,4.58,3.713,8.294,8.294,8.294h318.479c4.58,0,8.294-3.713,8.294-8.294V388.7 c0-4.58-3.713-8.294-8.294-8.294c-4.58,0-8.294,3.713-8.294,8.294v35.938H60.816V87.36h301.892V123.3 C362.708,127.881,366.422,131.594,371.002,131.594z"/> </g> </g><g> <g> <path d="M273.693,362.713H202.92c-4.58,0-8.294,3.713-8.294,8.294s3.713,8.294,8.294,8.294h70.773c4.58,0,8.294-3.713,8.294-8.294 S278.274,362.713,273.693,362.713z"/> </g> </g><g> <g> <path d="M167.533,362.713H149.84c-4.58,0-8.294,3.713-8.294,8.294s3.713,8.294,8.294,8.294h17.693c4.58,0,8.294-3.713,8.294-8.294 S172.114,362.713,167.533,362.713z"/> </g> </g><g> <g> <path d="M211.767,141.546c-24.085,0-43.68,19.595-43.68,43.68c0,24.085,19.595,43.68,43.68,43.68s43.68-19.595,43.68-43.68 C255.447,161.142,235.852,141.546,211.767,141.546z M211.767,212.32c-14.939,0-27.093-12.154-27.093-27.093 c0-14.939,12.154-27.093,27.093-27.093s27.093,12.154,27.093,27.093C238.86,200.165,226.705,212.32,211.767,212.32z"/> </g> </g><g> <g> <path d="M397.546,150.393c-58.232,0-105.607,47.375-105.607,105.607c0,30.554,12.938,58.982,35.739,79.066 c-11.441,18.732-23.858,29.525-23.985,29.633c-2.733,2.334-3.651,6.163-2.276,9.483c1.292,3.116,4.328,5.119,7.659,5.119 c0.218,0,0.438-0.009,0.658-0.025c1.365-0.108,32.508-2.768,60.135-21.346c9.004,2.442,18.295,3.678,27.677,3.678 c58.232,0,105.607-47.375,105.607-105.607C503.153,197.768,455.778,150.393,397.546,150.393z M397.546,345.019 c-9.084,0-18.064-1.373-26.689-4.081c-2.51-0.787-5.247-0.337-7.374,1.214c-10.211,7.453-21.42,12.265-31.044,15.345 c4.305-5.678,8.903-12.505,13.214-20.384c1.962-3.586,1.018-8.067-2.223-10.557c-22.182-17.041-34.903-42.758-34.903-70.556 c0-49.086,39.934-89.019,89.019-89.019c49.086,0,89.019,39.934,89.019,89.019S446.632,345.019,397.546,345.019z"/> </g> </g><g> <g> <path d="M440.943,212.604c-4.907-4.91-11.432-7.613-18.375-7.613c-6.941,0-13.468,2.704-18.376,7.611 c-8.08,8.079-9.695,20.193-4.888,29.911l-45.156,45.156c-3.239,3.239-3.239,8.491,0,11.728c1.619,1.619,3.742,2.43,5.864,2.43 c2.122,0,4.245-0.809,5.864-2.43l6.646-6.646l6.647,6.646c1.619,1.62,3.742,2.43,5.864,2.43c2.122,0,4.245-0.809,5.864-2.43 c3.239-3.239,3.239-8.491,0-11.728l-6.647-6.646l26.78-26.78c3.625,1.793,7.576,2.711,11.535,2.711 c6.655,0,13.31-2.533,18.376-7.599c4.908-4.908,7.611-11.434,7.611-18.376C448.554,224.038,445.85,217.512,440.943,212.604z M429.215,237.624c-3.665,3.665-9.628,3.664-13.293,0c-3.665-3.665-3.665-9.628,0-13.293c1.775-1.775,4.136-2.754,6.647-2.754 c2.511,0,4.871,0.978,6.646,2.754c1.775,1.775,2.754,4.135,2.754,6.646S430.99,235.85,429.215,237.624z"/> </g> </g><g> <g> <path d="M255.239,245.15c-6.99-5.518-17.344-4.427-23.569,2.483c-5.184,5.753-12.254,8.921-19.904,8.921 s-14.72-3.168-19.904-8.921c-6.226-6.909-16.58-8-23.569-2.483c-16.999,13.415-26.748,33.492-26.748,55.084v26.54 c0,4.58,3.713,8.294,8.294,8.294h123.853c4.58,0,8.294-3.713,8.294-8.294v-26.54C281.987,278.642,272.238,258.564,255.239,245.15z M265.4,318.479H158.134v-18.246c0-16.482,7.449-31.814,20.39-42.048c0.119-0.021,0.593,0.082,1.016,0.552 c8.25,9.153,19.996,14.403,32.226,14.403c12.231,0,23.977-5.25,32.226-14.403c0.424-0.47,0.9-0.571,0.962-0.573l0.009,0.007 c12.987,10.249,20.436,25.58,20.436,42.063V318.479z"/> </g> </g></symbol></svg>