<svg xmlns="http://www.w3.org/2000/svg" style="display: none;"><symbol id="route" viewBox="0 0 59 59"><title>route</title><path style="fill:#ED8A19;" d="M45.07,59c-0.553,0-1-0.447-1-1s0.447-1,1-1H47c0.553,0,1.035,0.447,1.035,0.999 c0,0.553-0.412,1-0.965,1v-1l-0.029,1L45.07,59z M41.07,59h-2c-0.553,0-1-0.447-1-1s0.447-1,1-1h2c0.553,0,1,0.447,1,1 S41.623,59,41.07,59z M35.07,59h-2c-0.553,0-1-0.447-1-1s0.447-1,1-1h2c0.553,0,1,0.447,1,1S35.623,59,35.07,59z M29.07,59h-2 c-0.553,0-1-0.447-1-1s0.447-1,1-1h2c0.553,0,1,0.447,1,1S29.623,59,29.07,59z M23.07,59h-2c-0.553,0-1-0.447-1-1s0.447-1,1-1h2 c0.553,0,1,0.447,1,1S23.623,59,23.07,59z M17.07,59h-2c-0.553,0-1-0.447-1-1s0.447-1,1-1h2c0.553,0,1,0.447,1,1S17.623,59,17.07,59 z M50.537,57.282c-0.216,0-0.434-0.07-0.617-0.214c-0.435-0.342-0.509-0.971-0.168-1.404c0.325-0.413,0.548-0.882,0.663-1.392 c0.121-0.539,0.656-0.877,1.195-0.756s0.877,0.656,0.756,1.195c-0.178,0.792-0.538,1.549-1.042,2.188 C51.127,57.151,50.834,57.282,50.537,57.282z M50.538,51.719c-0.297,0-0.59-0.131-0.787-0.382c-0.32-0.407-0.734-0.744-1.197-0.974 c-0.494-0.246-0.696-0.846-0.45-1.341c0.246-0.494,0.844-0.697,1.341-0.45c0.727,0.361,1.376,0.89,1.879,1.528 c0.341,0.434,0.267,1.063-0.168,1.404C50.973,51.648,50.754,51.719,50.538,51.719z M45.071,50h-2c-0.553,0-1-0.447-1-1s0.447-1,1-1 h2c0.553,0,1,0.447,1,1S45.624,50,45.071,50z M39.071,50h-2c-0.553,0-1-0.447-1-1s0.447-1,1-1h2c0.553,0,1,0.447,1,1 S39.624,50,39.071,50z M33.129,49.594c-0.139,0-0.28-0.029-0.415-0.091c-0.736-0.336-1.402-0.844-1.927-1.467 c-0.355-0.423-0.301-1.054,0.122-1.409s1.053-0.301,1.409,0.122c0.334,0.397,0.759,0.721,1.228,0.936 c0.502,0.229,0.723,0.822,0.493,1.325C33.871,49.377,33.509,49.594,33.129,49.594z M30.58,44.65c-0.063,0-0.126-0.006-0.189-0.018 c-0.543-0.104-0.897-0.629-0.794-1.171c0.155-0.809,0.483-1.556,0.973-2.222c0.328-0.445,0.953-0.539,1.398-0.213 c0.445,0.328,0.54,0.954,0.213,1.398c-0.313,0.424-0.521,0.899-0.619,1.413C31.469,44.317,31.05,44.65,30.58,44.65z M34.784,41.005 c-0.533,0-0.977-0.421-0.998-0.959c-0.022-0.552,0.406-1.018,0.958-1.04C34.829,39.002,34.914,39,35,39h1.785c0.553,0,1,0.447,1,1 s-0.447,1-1,1l-1.959,0.004C34.812,41.005,34.798,41.005,34.784,41.005z M53,41h-0.215c-0.553,0-1-0.447-1-1s0.447-1,1-1H53 c0.469,0,0.923-0.091,1.352-0.271c0.505-0.215,1.095,0.025,1.309,0.535c0.214,0.509-0.025,1.095-0.535,1.309 C54.451,40.856,53.736,41,53,41z M48.785,41h-2c-0.553,0-1-0.447-1-1s0.447-1,1-1h2c0.553,0,1,0.447,1,1S49.338,41,48.785,41z M42.785,41h-2c-0.553,0-1-0.447-1-1s0.447-1,1-1h2c0.553,0,1,0.447,1,1S43.338,41,42.785,41z M57.318,37.77 c-0.093,0-0.188-0.013-0.281-0.04c-0.53-0.155-0.834-0.711-0.679-1.241c0.094-0.32,0.142-0.652,0.142-0.988 c0.002-0.192-0.014-0.374-0.042-0.552c-0.088-0.545,0.283-1.059,0.829-1.146c0.543-0.09,1.058,0.283,1.146,0.829 c0.047,0.293,0.069,0.588,0.067,0.876c0,0.519-0.074,1.04-0.222,1.543C58.15,37.487,57.751,37.77,57.318,37.77z M55.25,32.604 c-0.17,0-0.343-0.043-0.501-0.135c-0.453-0.263-0.947-0.417-1.47-0.458c-0.551-0.043-0.962-0.524-0.919-1.075 c0.043-0.552,0.526-0.959,1.075-0.919c0.823,0.064,1.604,0.308,2.317,0.722c0.478,0.277,0.641,0.89,0.363,1.367 C55.931,32.425,55.595,32.604,55.25,32.604z M49.357,32h-2c-0.553,0-1-0.447-1-1s0.447-1,1-1h2c0.553,0,1,0.447,1,1 S49.91,32,49.357,32z M43.357,32h-2c-0.553,0-1-0.447-1-1s0.447-1,1-1h2c0.553,0,1,0.447,1,1S43.91,32,43.357,32z M37.357,32h-2 c-0.553,0-1-0.447-1-1s0.447-1,1-1h2c0.553,0,1,0.447,1,1S37.91,32,37.357,32z M31.357,32H31c-0.678-0.001-1.337-0.123-1.963-0.361 c-0.516-0.197-0.774-0.775-0.578-1.291c0.198-0.517,0.779-0.773,1.291-0.578c0.398,0.152,0.819,0.229,1.252,0.23h0.355 c0.553,0,1,0.447,1,1S31.91,32,31.357,32z M26.724,28.905c-0.42,0-0.812-0.267-0.95-0.688c-0.182-0.552-0.273-1.13-0.273-1.718 c0.001-0.238,0.016-0.469,0.044-0.694c0.068-0.546,0.552-0.931,1.117-0.867c0.548,0.068,0.937,0.569,0.867,1.117 c-0.019,0.147-0.027,0.298-0.028,0.449c0,0.37,0.059,0.737,0.174,1.088c0.172,0.524-0.113,1.09-0.638,1.263 C26.933,28.89,26.827,28.905,26.724,28.905z M28.628,23.676c-0.334,0-0.66-0.167-0.85-0.471c-0.292-0.469-0.149-1.086,0.319-1.378 c0.7-0.437,1.472-0.703,2.294-0.794c0.553-0.057,1.043,0.336,1.104,0.885s-0.336,1.043-0.885,1.104 c-0.521,0.058-1.011,0.227-1.454,0.503C28.991,23.627,28.809,23.676,28.628,23.676z M42.5,23h-2c-0.553,0-1-0.447-1-1s0.447-1,1-1h2 c0.553,0,1,0.447,1,1S43.053,23,42.5,23z M36.5,23h-2c-0.553,0-1-0.447-1-1s0.447-1,1-1h2c0.553,0,1,0.447,1,1S37.053,23,36.5,23z"/><path style="fill:#26B99A;" d="M53.47,2.669L53.47,2.669c-3.157-3.559-8.276-3.559-11.433,0v0c-3.157,3.559-3.157,9.328,0,12.887 L47.753,22l5.716-6.444C56.627,11.998,56.627,6.228,53.47,2.669z M48,13c-2.485,0-4.5-2.015-4.5-4.5S45.515,4,48,4 s4.5,2.015,4.5,4.5S50.485,13,48,13z"/><path style="fill:#3083C9;" d="M19.278,28.64c-4.296-4.853-11.261-4.853-15.556,0h0c-4.296,4.853-4.296,12.721,0,17.573L11.5,55 l7.778-8.787C23.574,41.36,23.574,33.492,19.278,28.64z M11.5,41c-2.761,0-5-2.239-5-5s2.239-5,5-5s5,2.239,5,5S14.261,41,11.5,41z"/></symbol><symbol id="investment" viewBox="0 0 480 480"><title>investment</title><path style="fill:#F7CC40;" d="M83.392,349.76c3.456,1.208,7,2.216,10.6,3.08c0.48,0.112,0.952,0.264,1.44,0.368 c3.288,0.752,6.648,1.288,10.032,1.744c0.752,0.096,1.48,0.256,2.232,0.344c4.04,0.448,8.136,0.704,12.304,0.704h48v32l53.64-64.368 l4.328-5.192L248,292l-35.552-32l-35.552-32H168v32h-48c-15.256,0-32.408-7.616-48-17.208C45.248,226.328,23.104,204,23.104,204 l-5.32-5.632C11.544,212.312,8,227.728,8,244c0,44.656,26.2,83.088,64,101.08c3.552,1.688,7.216,3.192,10.952,4.52 C83.104,349.648,83.248,349.704,83.392,349.76z"/><path style="fill:#FCF1ED;" d="M8,188v56c0-16.272,3.544-31.688,9.784-45.64L8,188z"/><path style="fill:#F7CC40;" d="M72,142.92L72,142.92c3.56-1.696,7.208-3.2,10.96-4.52c0.144-0.048,0.288-0.112,0.44-0.16 c3.456-1.208,7-2.216,10.6-3.08c0.48-0.12,0.952-0.256,1.44-0.368c3.288-0.752,6.648-1.288,10.032-1.744 c0.752-0.104,1.48-0.256,2.232-0.344C111.736,132.264,115.84,132,120,132h312V44H120C58.144,44,8,94.144,8,156v32l9.784,10.36 C28.672,174.032,47.968,154.36,72,142.92z"/><path style="fill:#ED903B;" d="M120,132c-4.16,0-8.264,0.264-12.304,0.712c-0.752,0.088-1.488,0.24-2.232,0.344 c-3.384,0.448-6.752,0.992-10.032,1.744c-0.488,0.112-0.952,0.248-1.44,0.368c-3.6,0.872-7.144,1.88-10.6,3.08 c-0.144,0.048-0.288,0.104-0.44,0.16c-3.752,1.32-7.4,2.824-10.952,4.52l0,0V164v32v32v14.792C87.592,252.384,104.744,260,120,260 h48v-32v-8l8.888,8l35.552,32H424h48v-32v-32v-32v-32h-40H120z"/><polygon style="fill:#FCF1ED;" points="168,220 168,228 176.888,228 "/><path style="fill:#69D6C7;" d="M424,260H212.448L248,292l-22.04,26.448l12.976-15.568C248.208,296.072,259.616,292,272,292 c30.928,0,56,25.072,56,56s-25.072,56-56,56s-56-25.072-56-56c0-8.744,2.064-16.992,5.64-24.368L168,388v-32h-48 c-4.168,0-8.264-0.256-12.304-0.712c-0.752-0.08-1.488-0.24-2.232-0.344c-3.384-0.448-6.752-0.992-10.032-1.744 c-0.488-0.112-0.952-0.256-1.44-0.368c-3.6-0.872-7.144-1.88-10.6-3.08c-0.144-0.048-0.288-0.112-0.44-0.16 c-3.744-1.328-7.4-2.832-10.952-4.52l0,0V388c26.512,0,48,21.488,48,48h304c0-26.512,21.488-48,48-48v-80 C445.488,308,424,286.512,424,260z"/><g> <path style="fill:#FCF1ED;" d="M216,348c0,30.928,25.072,56,56,56s56-25.072,56-56s-25.072-56-56-56 c-12.384,0-23.792,4.072-33.064,10.872L225.96,318.44l-4.328,5.192C218.064,331.008,216,339.256,216,348z"/> <path style="fill:#FCF1ED;" d="M72,388v48h48C120,409.488,98.512,388,72,388z"/> <path style="fill:#FCF1ED;" d="M424,436h48v-48C445.488,388,424,409.488,424,436z"/> <path style="fill:#FCF1ED;" d="M472,308v-48h-48C424,286.512,445.488,308,472,308z"/> </g><path style="fill:#212329;" d="M472,124h-32V44c0-4.424-3.584-8-8-8H120C53.832,36,0,89.832,0,156v88 c0,45.944,25.984,85.896,64,106.048V388v48c0,4.424,3.584,8,8,8h48h304h48c4.416,0,8-3.576,8-8v-48v-80v-48v-32v-32v-32v-32 C480,127.576,476.416,124,472,124z M160,252h-40c-12.464,0-26.616-5.88-40-13.696V236h80V252z M464,188H80v-16h384V188z M464,220 H179.96l-6.608-5.944c-2.352-2.128-5.72-2.656-8.608-1.36C161.856,213.976,160,216.84,160,220H80v-16h384V220z M64,164v32v31.896 C44.264,213.8,29.136,198.72,28.92,198.512l-1.592-1.688C35.76,180.328,48.488,166.392,64,156.44V164z M197.736,236H464v16h-40 H215.512L197.736,236z M464,268v31.192c-15.648-3.184-28.008-15.544-31.192-31.192H464z M464,156H80v-7.896 c6.328-2.664,12.824-4.664,19.432-6.016c0.24-0.048,0.48-0.08,0.72-0.128c2.752-0.544,5.536-0.944,8.328-1.256 c0.736-0.08,1.464-0.168,2.208-0.24c3.08-0.28,6.184-0.464,9.312-0.464h312h32V156z M16,156C16,98.656,62.656,52,120,52h304v72H120 c-4.064,0-8.072,0.272-12.032,0.664c-0.696,0.072-1.392,0.128-2.088,0.216c-4.056,0.48-8.048,1.152-11.968,2.024 c-0.168,0.04-0.328,0.08-0.496,0.12C60.392,134.528,32.48,155.64,16,184.176V156z M16,244c0-10.832,1.664-21.288,4.752-31.12 C33.744,225.272,81.336,268,120,268h48c4.416,0,8-3.576,8-8v-22.04l60.928,54.832l-4.112,4.928 c-0.008,0.008-0.016,0.016-0.024,0.024l-17.304,20.76c-0.008,0.016-0.016,0.024-0.024,0.04L176,365.904V356c0-4.424-3.584-8-8-8h-48 c-3.752,0-7.472-0.216-11.16-0.624c-0.752-0.08-1.48-0.248-2.232-0.344c-3-0.392-5.984-0.856-8.936-1.512 c-0.584-0.128-1.144-0.304-1.728-0.448c-3.16-0.76-6.304-1.632-9.4-2.704c-0.328-0.112-0.648-0.24-0.976-0.36 c-3.304-1.176-6.568-2.504-9.792-4.024C40.52,321.336,16,285.52,16,244z M272,300c26.472,0,48,21.528,48,48s-21.528,48-48,48 s-48-21.528-48-48c0-6.92,1.496-13.656,4.432-20.024l16.008-19.208C252.592,303.032,262.096,300,272,300z M87.808,359.488 c1.512,0.424,3.032,0.808,4.552,1.176c1.848,0.44,3.704,0.864,5.584,1.216c2.168,0.408,4.344,0.712,6.528,1 c1.424,0.184,2.824,0.416,4.256,0.552C112.464,363.784,116.216,364,120,364h40v24c0,3.368,2.112,6.376,5.28,7.52 c0.848,0.304,1.72,0.44,2.584,0.456c0.048,0,0.088,0.024,0.136,0.024c0.128,0,0.24-0.072,0.368-0.08 c0.888-0.04,1.736-0.24,2.56-0.56c0.248-0.096,0.48-0.192,0.72-0.32c0.928-0.48,1.792-1.072,2.488-1.912l34.072-40.888 C210.416,385.552,238.144,412,272,412c35.288,0,64-28.712,64-64s-28.712-64-64-64c-6.216,0-12.288,1.008-18.128,2.744 c-0.192-0.216-0.296-0.488-0.52-0.688L233.296,268H416.64c3.528,24.472,22.888,43.832,47.36,47.36v65.28 c-24.472,3.528-43.832,22.888-47.36,47.36H127.36c-3.528-24.472-22.888-43.832-47.36-47.36v-23.576 c0.368,0.136,0.752,0.224,1.128,0.352C83.328,358.168,85.552,358.856,87.808,359.488z M80,428v-31.192 c15.648,3.184,28.008,15.544,31.192,31.192H80z M464,428h-31.192c3.184-15.648,15.544-28.008,31.192-31.192V428z"/></symbol><symbol id="mind" viewBox="0 0 496 496"><title>mind</title><path style="fill:#F9BA48;" d="M357.956,208v-48h-27.144c-2.264-8.784-5.72-17.072-10.224-24.688l19.192-19.192l-33.944-33.944 l-19.192,19.192c-7.624-4.504-15.904-7.952-24.688-10.224V64h-48v27.144c-8.784,2.264-17.072,5.72-24.688,10.224l-19.192-19.192 l-33.944,33.944l19.192,19.192c-4.504,7.624-7.952,15.904-10.224,24.688h-27.144v48H145.1c2.264,8.784,5.72,17.072,10.224,24.688 l-19.192,19.192l33.944,33.944l19.192-19.192c7.624,4.504,15.904,7.96,24.688,10.224V304h48v-27.144 c8.784-2.264,17.072-5.72,24.688-10.224l19.192,19.192l33.944-33.944l-19.192-19.192c4.504-7.624,7.952-15.904,10.224-24.688 L357.956,208L357.956,208z M237.956,240c-30.928,0-56-25.072-56-56s25.072-56,56-56s56,25.072,56,56S268.884,240,237.956,240z"/><g> <path style="fill:#333333;" d="M237.956,120c-35.288,0-64,28.712-64,64s28.712,64,64,64s64-28.712,64-64S273.244,120,237.956,120z M237.956,232c-26.472,0-48-21.528-48-48s21.528-48,48-48s48,21.528,48,48S264.428,232,237.956,232z"/> <path style="fill:#333333;" d="M493.956,96V48h-12.672c-0.136-0.328-0.264-0.656-0.408-0.976l8.968-8.96L455.892,4.112l-8.96,8.968 c-0.32-0.144-0.648-0.272-0.976-0.408V0h-48v12.672c-0.328,0.136-0.656,0.264-0.976,0.408l-8.96-8.968l-33.952,33.952l8.968,8.96 c-0.144,0.32-0.272,0.648-0.408,0.976h-1.24C328.1,17.768,285.276,0.744,240.284,0.168c-0.784-0.008-1.552-0.016-2.328-0.016 c-86.424,0-161.96,61.56-180.144,147.184c-4.496,21.128-5.056,42.92-1.68,64.832L2.044,308.912l59.912,17.12V424h80v72h16v-88h-80 v-94.032l-52.088-14.88l46.968-84l-0.472-2.784c-3.528-20.856-3.168-41.592,1.104-61.64 c16.76-78.952,86.624-135.736,166.616-134.496c40.768,0.52,79.576,15.864,109.872,43.08V96h12.672 c0.136,0.328,0.264,0.656,0.408,0.976l-8.968,8.96l33.952,33.952l8.96-8.968c0.32,0.144,0.648,0.272,0.976,0.408V144h2.888 c3.224,13.144,4.96,26.584,4.96,40.08l0.024,29.184c0,6.184-0.408,12.456-1.008,18.736h-6.864v12.672 c-0.328,0.136-0.656,0.264-0.976,0.408l-8.96-8.968l-33.952,33.952l8.968,8.96c-0.144,0.32-0.272,0.648-0.408,0.976h-12.672v48 h12.672c0.136,0.328,0.264,0.656,0.408,0.976l-8.968,8.96l3.472,3.472c-10.752,12.288-22.824,23.216-36.12,32.376l-3.464,2.384V496 h16V384.52c12.76-9.176,24.416-19.872,34.928-31.768l19.136,19.136l8.96-8.968c0.32,0.144,0.648,0.272,0.976,0.408V376h48v-12.672 c0.328-0.136,0.656-0.264,0.976-0.408l8.96,8.968l33.952-33.952l-8.968-8.96c0.144-0.32,0.272-0.648,0.408-0.976h12.672v-48 h-12.672c-0.136-0.328-0.264-0.656-0.408-0.976l8.968-8.96l-33.952-33.952l-8.96,8.968c-0.32-0.144-0.648-0.272-0.976-0.408V232 h-25.072c0.56-6.28,0.944-12.552,0.944-18.744l-0.024-29.184c0-13.472-1.552-26.896-4.496-40.072h28.648v-12.672 c0.328-0.136,0.656-0.264,0.976-0.408l8.96,8.968l33.952-33.952l-8.968-8.96c0.144-0.32,0.272-0.648,0.408-0.976 C481.284,96,493.956,96,493.956,96z M435.668,258.016c3.256,0.976,6.32,2.232,9.112,3.752l5.256,2.848l5.856-5.864l11.312,11.312 l-5.864,5.856l2.848,5.256c1.512,2.792,2.776,5.848,3.752,9.112l1.704,5.712h8.312v16h-8.312l-1.704,5.712 c-0.976,3.256-2.232,6.32-3.752,9.112l-2.848,5.256l5.864,5.856l-11.312,11.312l-5.856-5.864l-5.256,2.848 c-2.792,1.512-5.848,2.776-9.112,3.752l-5.712,1.704V360h-16v-8.312l-5.712-1.704c-3.256-0.976-6.32-2.232-9.112-3.752 l-5.256-2.848l-5.856,5.864l-11.312-11.312l5.864-5.856l-2.848-5.256c-1.512-2.792-2.776-5.848-3.752-9.112L374.268,312h-8.312v-16 h8.312l1.704-5.712c0.976-3.256,2.232-6.32,3.752-9.112l2.848-5.256l-5.864-5.856l11.312-11.312l5.856,5.864l5.256-2.848 c2.792-1.512,5.848-2.776,9.112-3.752l5.712-1.704V248h16v8.312L435.668,258.016z M477.956,80h-8.312l-1.704,5.712 c-0.976,3.256-2.232,6.32-3.752,9.112l-2.848,5.256l5.864,5.856l-11.312,11.312l-5.856-5.864l-5.256,2.848 c-2.792,1.512-5.848,2.776-9.112,3.752l-5.712,1.704V128h-16v-8.312l-5.712-1.704c-3.256-0.976-6.32-2.232-9.112-3.752 l-5.256-2.848l-5.856,5.864l-11.312-11.312l5.864-5.856l-2.848-5.256c-1.512-2.792-2.776-5.848-3.752-9.112L374.268,80h-8.312V64 h8.312l1.704-5.712c0.976-3.256,2.232-6.32,3.752-9.112l2.848-5.256l-5.864-5.856l11.312-11.312l5.856,5.864l5.256-2.848 c2.792-1.512,5.848-2.776,9.112-3.752l5.712-1.704V16h16v8.312l5.712,1.704c3.256,0.976,6.32,2.232,9.112,3.752l5.256,2.848 l5.856-5.864l11.312,11.312l-5.864,5.856l2.848,5.256c1.512,2.792,2.776,5.848,3.752,9.112L469.644,64h8.312V80z"/> <path style="fill:#333333;" d="M421.956,40c-17.648,0-32,14.352-32,32s14.352,32,32,32s32-14.352,32-32S439.604,40,421.956,40z M421.956,88c-8.824,0-16-7.176-16-16s7.176-16,16-16s16,7.176,16,16S430.78,88,421.956,88z"/> <path style="fill:#333333;" d="M389.956,304c0,17.648,14.352,32,32,32s32-14.352,32-32s-14.352-32-32-32 S389.956,286.352,389.956,304z M437.956,304c0,8.824-7.176,16-16,16s-16-7.176-16-16s7.176-16,16-16S437.956,295.176,437.956,304z"/> </g></symbol></svg>