<?xml version="1.0" encoding="utf-8"?>
<!-- Generator: Adobe Illustrator 16.0.0, SVG Export Plug-In . SVG Version: 6.00 Build 0)  -->
<!DOCTYPE svg PUBLIC "-//W3C//DTD SVG 1.1//EN" "http://www.w3.org/Graphics/SVG/1.1/DTD/svg11.dtd">
<svg version="1.1" id="Capa_1" xmlns="http://www.w3.org/2000/svg" xmlns:xlink="http://www.w3.org/1999/xlink" x="0px" y="0px"
	 width="800px" height="697.697px" viewBox="0 0 800 697.697" enable-background="new 0 0 800 697.697" xml:space="preserve">
<g>
	<g>
		<path fill="#13A548" d="M739.395,581.794H60.606C27.2,581.794,0,554.618,0,521.188V60.606C0,27.175,27.2,0,60.606,0h678.789
			C772.8,0,800,27.176,800,60.606v460.583C800,554.618,772.8,581.794,739.395,581.794z M60.606,24.242
			c-20.048,0-36.364,16.315-36.364,36.364v460.583c0,20.047,16.315,36.363,36.364,36.363h678.789
			c20.049,0,36.363-16.316,36.363-36.363V60.606c0-20.049-16.314-36.364-36.363-36.364H60.606z"/>
		<path fill="#13A548" d="M554.545,697.696H245.454c-6.69,0-12.121-5.43-12.121-12.119c0-6.691,5.431-12.121,12.121-12.121h309.091
			c6.691,0,12.122,5.43,12.122,12.121C566.667,692.267,561.236,697.696,554.545,697.696z"/>
		<path fill="#13A548" d="M400,697.696c-6.691,0-12.121-5.43-12.121-12.119V569.673c0-6.691,5.43-12.121,12.121-12.121
			c6.69,0,12.121,5.43,12.121,12.121v115.902C412.121,692.29,406.69,697.696,400,697.696z"/>
	</g>
	<g>
		<path fill="#1A409A" d="M451.046,298.446l-0.753-0.34c-1.799-0.817-3.609-1.59-5.457-2.313c-2.014-0.808-4.057-1.554-6.131-2.253
			c-1.638-0.537-3.287-1.04-4.955-1.529c-2.539-0.735-5.104-1.398-7.744-1.984c-0.896-0.185-1.811-0.364-2.719-0.525l-0.621-0.12
			c-1.559-0.305-3.125-0.574-4.709-0.808l-0.453-0.071c-0.018,0-0.03-0.013-0.048-0.013l-0.454-0.06
			c-1.313-0.197-2.623-0.382-3.986-0.537l-4.637-0.382c-5.701-0.376-11.576-0.364-17.21,0.047l-1.643,0.138l-0.766,0.061
			l-1.918,0.173c-1.763,0.185-3.514,0.431-5.265,0.711l-0.514,0.071c-1.195,0.198-2.392,0.419-3.568,0.64
			c-1.308,0.233-2.6,0.49-3.891,0.771c-2.498,0.562-4.979,1.2-7.381,1.9c-1.912,0.549-3.8,1.153-5.575,1.764l-1.231,0.442
			c-3.765,1.332-7.506,2.862-11.127,4.541l-0.968,0.46l-0.019,0.024c-42.351,20.271-69.662,63.459-69.662,110.323
			c0,1.074,0.072,2.133,0.139,3.195l0.316,7.436h243.793l0.328-7.352c0.072-1.088,0.14-2.17,0.14-3.279
			C522.357,361.966,494.383,318.394,451.046,298.446z M289.599,408.255c0.516-42.076,25.394-80.675,63.311-98.455l1.219-0.479
			l0.144-0.138c2.97-1.355,6.035-2.593,9.143-3.687l0.986-0.354c1.69-0.585,3.376-1.123,5.127-1.62
			c2.181-0.64,4.403-1.213,6.633-1.714c1.153-0.245,2.307-0.478,3.496-0.7c0.943-0.173,1.882-0.352,2.833-0.502l0.465-0.083
			c1.709-0.269,3.425-0.514,5.134-0.699l3.908-0.34c5.115-0.377,10.01-0.431,15.938,0l3.802,0.317
			c0.938,0.107,1.876,0.232,3.018,0.395l1.369,0.197c1.428,0.209,2.856,0.454,4.29,0.723l0.669,0.126
			c0.808,0.15,1.608,0.306,2.367,0.467c2.354,0.514,4.667,1.123,6.962,1.786c1.517,0.442,3.022,0.896,4.493,1.388
			c1.864,0.621,3.706,1.297,5.528,2.02c1.75,0.688,3.478,1.422,5.187,2.206l0.299,0.139c38.778,17.791,63.961,56.516,64.475,98.997
			H289.599V408.255z M370.46,272.152c0.896,0.376,1.823,0.705,2.749,1.034l1.942,0.705c0.747,0.287,1.5,0.568,2.265,0.807
			c7.124,2.241,14.575,3.395,22.153,3.455l0.604,0.013c2.6,0,5.206-0.139,7.703-0.396c0.86-0.083,1.697-0.221,2.539-0.364
			l1.871-0.28c1.052-0.139,2.104-0.293,3.203-0.509c0.754-0.154,1.481-0.353,2.212-0.55l2.044-0.52
			c1.01-0.245,2.02-0.49,3.018-0.801c0.621-0.197,1.23-0.425,1.835-0.651l1.644-0.592c1.172-0.406,2.354-0.825,3.538-1.32
			c0.461-0.197,0.908-0.412,1.35-0.628l0.533-0.263c1.619-0.725,3.232-1.466,4.834-2.325l1.039-0.621
			c1.793-1.018,3.58-2.068,5.391-3.305c0.938-0.634,1.834-1.346,2.72-2.05l3.061-2.378c17.594-14.563,27.705-35.934,27.705-58.099
			l0.035-0.633c0-42.059-34.218-76.271-76.277-76.271c-40.146,0-73.546,31.392-76.038,71.467l-0.065,0.992
			c-0.097,1.261-0.173,2.522-0.173,3.813C323.878,232.603,342.159,260.182,370.46,272.152z M335.979,198.899l0.072-1.076
			c2.104-33.794,30.263-60.262,64.11-60.262c35.474,0,64.324,28.853,64.354,63.775l-0.035,0.628
			c-0.024,19.135-8.559,37.153-23.469,49.529l-2.838,2.164c-0.634,0.515-1.272,1.028-2.068,1.578
			c-1.434,0.976-2.952,1.854-4.493,2.726l-0.855,0.52c-1.289,0.694-2.646,1.31-4.057,1.937l-1.584,0.765
			c-0.908,0.376-1.864,0.705-2.81,1.034l-1.973,0.711c-0.383,0.143-0.771,0.298-1.147,0.412c-0.733,0.227-1.486,0.4-2.234,0.586
			l-2.384,0.609c-0.516,0.139-1.022,0.281-1.477,0.376c-0.795,0.155-1.606,0.264-2.414,0.376l-2.271,0.342
			c-0.55,0.096-1.102,0.19-1.716,0.251c-1.99,0.209-3.992,0.322-6.023,0.34l-0.563-0.006h-0.012
			c-6.543-0.005-12.968-0.979-19.111-2.904c-0.531-0.167-1.052-0.376-1.571-0.574l-2.247-0.817
			c-0.699-0.246-1.393-0.484-2.063-0.766c-23.855-10.09-39.274-33.361-39.274-59.266
			C335.829,200.876,335.907,199.885,335.979,198.899z"/>
	</g>
</g>
</svg>
